<svg width="92" height="44" viewBox="0 0 92 44" fill="none" xmlns="http://www.w3.org/2000/svg">
<g clip-path="url(#clip0_4_3)">
<mask id="mask0_4_3" style="mask-type:luminance" maskUnits="userSpaceOnUse" x="0" y="0" width="92" height="44">
<path d="M92 0H0V44H92V0Z" fill="white"/>
</mask>
<g mask="url(#mask0_4_3)">
<path d="M0.0894775 15.0177H11.6451C13.8957 15.0177 15.7604 13.1848 15.7604 10.9727C15.7604 8.76056 13.8957 6.92773 11.6451 6.92773H0.0894775V0.270081H11.6451C17.6343 0.270081 22.5338 5.0858 22.5338 10.9697C22.5338 15.2149 19.9868 18.9018 16.3191 20.6284L23.6051 32.6055H15.714L9.06103 21.6692H0.0894775V15.0116V15.0177Z" fill="#231F20"/>
<path d="M49.609 0.273132H56.3824V19.5755C56.3824 26.746 50.2851 32.6116 42.8294 32.6116C35.3737 32.6116 29.2764 26.746 29.2764 19.5755V0.273132H36.0498V19.5755C36.0498 23.1501 39.1123 26.0966 42.8294 26.0966C46.5464 26.0966 49.609 23.1501 49.609 19.5755V0.273132Z" fill="#231F20"/>
<path d="M69.9292 15.8764L82.8926 0.333801H91.648L69.9292 26.3788V32.6723H63.1527V0.333801H69.9292V15.8764Z" fill="#231F20"/>
<path d="M82.2318 21.3779L79.0736 25.1619L77.8541 26.6276L82.8925 32.6723H84.1182H91.6479L82.2318 21.3779Z" fill="#7F4991"/>
<path d="M4.25415 40.5862H0.83657C0.873617 41.5148 1.56825 42.1429 2.51912 42.1429C3.02234 42.1429 3.48543 41.9639 3.79107 41.5967L4.01026 41.8425C3.6614 42.2613 3.11187 42.4797 2.50986 42.4797C1.30583 42.4797 0.463013 41.6574 0.463013 40.4982C0.463013 39.3391 1.27805 38.5137 2.36785 38.5137C3.45764 38.5137 4.26342 39.3208 4.26342 40.48C4.26342 40.5104 4.25724 40.5468 4.25724 40.5862H4.25415ZM0.842744 40.2949H3.88677C3.83429 39.4483 3.20758 38.8444 2.36476 38.8444C1.52194 38.8444 0.904489 39.4422 0.842744 40.2949Z" fill="#231F20"/>
<path d="M11.5062 40.1675V42.4494H11.1265V40.1978C11.1265 39.3148 10.6479 38.8505 9.83907 38.8505C8.90363 38.8505 8.33249 39.4422 8.33249 40.3708V42.4524H7.95276V38.5471H8.31705V39.3937C8.58256 38.8475 9.13826 38.5197 9.89155 38.5197C10.8579 38.5197 11.5062 39.0811 11.5062 40.1735V40.1675Z" fill="#231F20"/>
<path d="M15.1583 40.4982C15.1583 39.33 16.0042 38.5137 17.1681 38.5137C17.801 38.5137 18.3475 38.7534 18.6747 39.2328L18.3938 39.4362C18.1036 39.0386 17.6621 38.8535 17.1681 38.8535C16.2327 38.8535 15.5473 39.512 15.5473 40.5013C15.5473 41.4905 16.2327 42.1459 17.1681 42.1459C17.6621 42.1459 18.1036 41.9578 18.3938 41.5633L18.6747 41.7666C18.3475 42.237 17.7979 42.4858 17.1681 42.4858C16.0042 42.4858 15.1583 41.6635 15.1583 40.5043V40.4982Z" fill="#231F20"/>
<path d="M21.8268 40.4982C21.8268 39.3391 22.6727 38.5137 23.815 38.5137C24.9573 38.5137 25.8032 39.336 25.8032 40.4982C25.8032 41.6604 24.9573 42.4797 23.815 42.4797C22.6727 42.4797 21.8268 41.6574 21.8268 40.4982ZM25.4111 40.4982C25.4111 39.5181 24.7257 38.8505 23.8119 38.8505C22.8981 38.8505 22.2127 39.5181 22.2127 40.4982C22.2127 41.4784 22.8981 42.1429 23.8119 42.1429C24.7257 42.1429 25.4111 41.4784 25.4111 40.4982Z" fill="#231F20"/>
<path d="M33.0212 36.8993V42.4524H32.6476V41.533C32.3358 42.1399 31.7338 42.4828 31.0176 42.4828C29.9 42.4828 29.0541 41.6665 29.0541 40.5013C29.0541 39.336 29.9 38.5167 31.0176 38.5167C31.7245 38.5167 32.3204 38.8596 32.6384 39.4513V36.8993H33.0181H33.0212ZM32.6415 40.4982C32.6415 39.5181 31.9561 38.8505 31.0423 38.8505C30.1284 38.8505 29.4431 39.5181 29.4431 40.4982C29.4431 41.4784 30.1284 42.1429 31.0423 42.1429C31.9561 42.1429 32.6415 41.4784 32.6415 40.4982Z" fill="#231F20"/>
<path d="M37.0161 37.2938C37.0161 37.1299 37.152 36.9873 37.3279 36.9873C37.5039 36.9873 37.6397 37.1208 37.6397 37.2877C37.6397 37.4546 37.5039 37.5942 37.3279 37.5942C37.152 37.5942 37.0161 37.4607 37.0161 37.2938ZM37.1365 38.544H37.5162V42.4494H37.1365V38.544Z" fill="#231F20"/>
<path d="M45.1911 40.1675V42.4494H44.8114V40.1978C44.8114 39.3148 44.3329 38.8505 43.524 38.8505C42.5886 38.8505 42.0174 39.4422 42.0174 40.3708V42.4524H41.6377V38.5471H42.002V39.3937C42.2675 38.8475 42.8232 38.5197 43.5765 38.5197C44.5428 38.5197 45.1911 39.0811 45.1911 40.1735V40.1675Z" fill="#231F20"/>
<path d="M52.8536 38.544V42.0306C52.8536 43.3385 52.2053 43.9302 50.9272 43.9302C50.2047 43.9302 49.5101 43.7057 49.1088 43.3081L49.3156 43.0229C49.7108 43.381 50.2819 43.5903 50.921 43.5903C51.9799 43.5903 52.4739 43.1109 52.4739 42.0731V41.4146C52.1466 41.9821 51.5384 42.3037 50.8222 42.3037C49.6953 42.3037 48.8433 41.5178 48.8433 40.4041C48.8433 39.2905 49.6953 38.5106 50.8222 38.5106C51.5539 38.5106 52.1682 38.8414 52.4893 39.424V38.541H52.8536V38.544ZM52.48 40.4072C52.48 39.4877 51.7947 38.8505 50.85 38.8505C49.9053 38.8505 49.2292 39.4877 49.2292 40.4072C49.2292 41.3266 49.9145 41.9699 50.85 41.9699C51.7854 41.9699 52.48 41.3266 52.48 40.4072Z" fill="#231F20"/>
<path d="M65.4033 40.4982C65.4033 41.6726 64.5574 42.4797 63.4398 42.4797C62.739 42.4797 62.1462 42.1429 61.8252 41.5603V43.9029H61.4454V38.547H61.8097V39.4665C62.1215 38.8687 62.7236 38.5167 63.4398 38.5167C64.5574 38.5167 65.4033 39.333 65.4033 40.5012V40.4982ZM65.0236 40.4982C65.0236 39.5181 64.332 38.8505 63.4182 38.8505C62.5044 38.8505 61.819 39.5181 61.819 40.4982C61.819 41.4784 62.5044 42.1429 63.4182 42.1429C64.332 42.1429 65.0236 41.4784 65.0236 40.4982Z" fill="#231F20"/>
<path d="M71.9483 39.9732V42.4494H71.584V41.7545C71.3339 42.2036 70.8461 42.4797 70.1515 42.4797C69.2593 42.4797 68.719 42.0306 68.719 41.3661C68.719 40.7744 69.0987 40.2737 70.204 40.2737H71.5654V39.9581C71.5654 39.2328 71.161 38.8444 70.3861 38.8444C69.8366 38.8444 69.3426 39.0447 69.0154 39.339L68.824 39.069C69.2191 38.7261 69.7995 38.5167 70.4139 38.5167C71.3956 38.5167 71.9452 39.0113 71.9452 39.9763L71.9483 39.9732ZM71.5685 41.2993V40.565H70.2132C69.392 40.565 69.1018 40.9018 69.1018 41.3509C69.1018 41.8607 69.5062 42.1732 70.2071 42.1732C70.9079 42.1732 71.3401 41.8577 71.5685 41.2993Z" fill="#231F20"/>
<path d="M77.9993 42.2036C77.8017 42.3917 77.4807 42.4797 77.1843 42.4797C76.4835 42.4797 76.1037 42.0761 76.1037 41.4177V38.8657H75.3721V38.544H76.1037V37.6913H76.4835V38.544H77.7462V38.8657H76.4835V41.3812C76.4835 41.8819 76.7335 42.1581 77.2213 42.1581C77.456 42.1581 77.6782 42.0822 77.8388 41.9426L77.9993 42.2036Z" fill="#231F20"/>
<path d="M85.1215 40.1675V42.4494H84.7418V40.1978C84.7418 39.3148 84.2633 38.8505 83.4544 38.8505C82.519 38.8505 81.9479 39.4422 81.9479 40.3708V42.4524H81.5681V36.8993H81.9479V39.3603C82.2226 38.8293 82.7691 38.5137 83.5069 38.5137C84.4732 38.5137 85.1215 39.075 85.1215 40.1675Z" fill="#231F20"/>
<path d="M88.6133 41.979L88.7893 41.6786C89.0949 41.9335 89.6352 42.149 90.2217 42.149C91.0584 42.149 91.3949 41.8577 91.3949 41.4146C91.3949 40.2767 88.7615 41.1142 88.7615 39.5818C88.7615 38.9901 89.2647 38.5106 90.2681 38.5106C90.7713 38.5106 91.3177 38.6593 91.6295 38.893L91.4536 39.1934C91.1201 38.9537 90.6848 38.8414 90.2588 38.8414C89.4839 38.8414 89.1412 39.157 89.1412 39.5757C89.1412 40.7501 91.7746 39.9186 91.7746 41.4086C91.7746 42.0458 91.2189 42.4797 90.2063 42.4797C89.5518 42.4797 88.9282 42.2643 88.6164 41.979H88.6133Z" fill="#231F20"/>
</g>
</g>
<defs>
<clipPath id="clip0_4_3">
<rect width="92" height="44" fill="white"/>
</clipPath>
</defs>
</svg>
